# xmcd CD database file
#
# Track frame offsets:
#	150
#	12587
#	30984
#	52698
#	74478
#	86832
#	109167
#	131849
#	146028
#	167208
#	190010
#	213144
#	232411
#	253561
#	274618
#
# Disc length: 3982 seconds
#
# Revision: 2
# Processed by: cddbd v1.5PL3 Copyright (c) Steve Scherf et al.
# Submitted via: CDex 1.51
#
DISCID=d90f8c0f
DTITLE=Joshi Juni Gakubou - Beautiful Enargy
DYEAR=1900
DGENRE=
TTITLE0=Kiseki
TTITLE1=Jiyuu
TTITLE2=Sekai ni Hitotsu dake no Hana
TTITLE3=Koukakurira
TTITLE4=Take Five
TTITLE5=Kawa no Nagare no youni
TTITLE6=Nyonimu
TTITLE7=Aramokkan
TTITLE8=Ryusan
TTITLE9=Love Story ha totsuzen ni
TTITLE10=Sansui
TTITLE11=Shichi Haku
TTITLE12=ShikinJo
TTITLE13=No Words
TTITLE14=Chijo no Hoshi
EXTD=
EXTT0=
EXTT1=
EXTT2=
EXTT3=
EXTT4=
EXTT5=
EXTT6=
EXTT7=
EXTT8=
EXTT9=
EXTT10=
EXTT11=
EXTT12=
EXTT13=
EXTT14=
PLAYORDER=
